<?xml version="1.0" encoding="UTF-8" standalone="no"?>
<svg
   xmlns:dc="http://purl.org/dc/elements/1.1/"
   xmlns:cc="http://creativecommons.org/ns#"
   xmlns:rdf="http://www.w3.org/1999/02/22-rdf-syntax-ns#"
   xmlns:svg="http://www.w3.org/2000/svg"
   xmlns="http://www.w3.org/2000/svg"
   xmlns:sodipodi="http://sodipodi.sourceforge.net/DTD/sodipodi-0.dtd"
   xmlns:inkscape="http://www.inkscape.org/namespaces/inkscape"
   width="2279.4102"
   height="325.20389"
   viewBox="0 0 175.74799 25.074"
   version="1.1"
   id="svg12"
   sodipodi:docname="crate-barrel.svg"
   inkscape:version="0.92.4 5da689c313, 2019-01-14">
  <metadata
     id="metadata18">
    <rdf:RDF>
      <cc:Work
         rdf:about="">
        <dc:format>image/svg+xml</dc:format>
        <dc:type
           rdf:resource="http://purl.org/dc/dcmitype/StillImage" />
        <dc:title></dc:title>
      </cc:Work>
    </rdf:RDF>
  </metadata>
  <defs
     id="defs16" />
  <sodipodi:namedview
     pagecolor="#ffffff"
     bordercolor="#666666"
     borderopacity="1"
     objecttolerance="10"
     gridtolerance="10"
     guidetolerance="10"
     inkscape:pageopacity="0"
     inkscape:pageshadow="2"
     inkscape:window-width="2560"
     inkscape:window-height="1361"
     id="namedview14"
     showgrid="false"
     fit-margin-top="0"
     fit-margin-left="0"
     fit-margin-right="0"
     fit-margin-bottom="0"
     inkscape:zoom="0.3776"
     inkscape:cx="873.76462"
     inkscape:cy="457.26492"
     inkscape:window-x="0"
     inkscape:window-y="0"
     inkscape:window-maximized="1"
     inkscape:current-layer="g10" />
  <g
     id="g10"
     style="clip-rule:evenodd;fill-rule:evenodd"
     transform="translate(-8.504,-83.842)">
    <path
       d="M 0,0 H 192.756 V 192.756 H 0 Z"
       id="path2"
       inkscape:connector-curvature="0"
       style="fill:#ffffff;fill-opacity:0" />
    <path
       d="m 100.844,108.271 -1.721,-2.152 c -1.4,1.398 -4.521,2.797 -6.781,2.797 -3.875,0 -7.211,-2.797 -7.211,-6.457 0,-4.52 4.305,-6.996 5.597,-7.426 -0.861,-1.077 -2.368,-2.906 -2.368,-5.167 0.107,-3.013 1.937,-5.381 5.919,-5.381 3.443,0 6.027,2.26 6.027,5.597 0,3.767 -2.906,5.058 -3.767,5.812 l 2.798,3.983 c 0.754,-0.969 1.506,-3.338 1.398,-3.768 h 3.768 c 0,0 -0.539,4.736 -2.691,6.996 l 3.982,5.166 z M 94.387,88.038 c -1.184,0 -2.152,0.969 -2.045,1.937 0.107,1.292 1.184,2.153 1.83,3.014 0.861,-0.646 2.368,-1.507 2.368,-2.906 0,-1.077 -0.862,-2.045 -2.153,-2.045 z m -1.399,10.009 c -3.659,2.475 -3.444,4.197 -3.444,4.197 0,1.721 1.614,2.689 2.798,2.797 1.399,0 3.444,-1.184 4.413,-2.045 z"
       id="path4"
       inkscape:connector-curvature="0"
       style="fill:#929496" />
    <path
       d="m 28.629,94.603 c -0.861,-3.444 -3.982,-6.242 -7.641,-6.242 -4.628,0 -8.072,3.659 -7.964,8.071 0.108,4.305 3.444,7.643 7.964,7.643 4.305,0 6.78,-3.123 7.318,-5.166 h 4.52 c -0.969,6.35 -7.103,9.686 -11.946,9.686 -5.488,0 -12.376,-4.52 -12.376,-12.162 0,-7.21 5.489,-12.591 12.484,-12.591 5.919,0 11.3,4.52 12.054,10.762 h -4.413 z m 36.592,13.776 c -3.552,0 -4.197,-2.584 -4.197,-3.982 v -10.44 h -2.26 v -3.336 h 2.26 v -5.166 h 4.521 v 5.381 h 2.905 v 3.121 h -2.905 v 9.364 c 0,2.367 2.905,1.613 3.336,1.721 v 3.338 h -3.66 z m -26.906,-7.965 v 7.857 H 33.902 V 91.159 h 4.305 v 1.722 c 0.646,-0.861 1.937,-1.83 3.336,-2.26 0.969,-0.107 1.938,0 1.938,0 v 4.197 c -2.26,-0.646 -5.381,0.323 -5.166,5.596 z"
       id="path6"
       inkscape:connector-curvature="0" />
    <path
       d="m 72.216,100.736 c 0,2.26 2.153,3.982 4.413,3.982 1.614,0 2.583,-0.645 3.444,-1.938 H 84.7 c -0.646,3.014 -3.767,5.812 -7.856,5.812 -5.273,0 -9.04,-3.982 -9.04,-9.578 0,-4.305 3.229,-8.718 8.502,-8.61 6.027,0.108 8.718,5.273 8.61,10.331 h -12.7 z m 3.983,-6.779 c -1.938,-0.107 -3.767,1.399 -3.767,3.551 h 7.533 c 0,-2.152 -1.721,-3.551 -3.766,-3.551 z m -21.31,14.314 c 0,0.107 -0.107,-0.646 -0.323,-1.4 -0.753,0.646 -2.475,1.938 -5.166,1.938 -3.014,0 -6.458,-1.83 -6.458,-5.381 0,-2.152 1.399,-4.951 6.242,-5.596 2.798,-0.432 4.951,-0.217 5.058,-1.723 0.107,-0.539 -0.431,-2.368 -3.229,-2.368 -1.292,0 -2.906,0.43 -3.229,2.475 h -3.875 c 0,-3.013 1.83,-5.596 7.534,-5.596 3.551,0 7.103,1.507 7.103,5.381 v 9.471 c 0.108,0.969 0.431,2.26 0.754,2.799 z m -7.964,-4.951 c 0.108,1.83 2.476,2.152 2.906,1.938 0,0 2.368,0 3.444,-1.184 0.646,-0.861 0.969,-1.938 0.646,-4.307 -4.305,0.969 -6.996,1.401 -6.996,3.553 z M 179.947,85.239 h 4.305 v 23.032 h -4.305 z m -22.709,15.282 v 7.75 h -4.412 V 91.266 h 4.305 v 1.722 c 0.754,-0.861 1.938,-1.938 3.336,-2.26 a 5.53,5.53 0 0 1 2.045,0 v 4.197 c -2.475,-0.645 -5.489,0.324 -5.274,5.596 z m -10.654,0 v 7.75 h -4.52 V 91.266 h 4.412 v 1.722 c 0.754,-0.861 1.938,-1.938 3.336,-2.26 0.969,-0.215 1.938,0 1.938,0 v 4.197 c -2.26,-0.645 -5.381,0.324 -5.166,5.596 z m 19.91,0.325 c 0,2.15 2.152,3.873 4.412,3.873 1.508,0 2.584,-0.537 3.445,-1.938 h 4.52 c -0.539,3.014 -3.66,5.812 -7.75,5.812 -5.164,0 -9.039,-3.982 -9.039,-9.471 0,-4.305 3.229,-8.718 8.502,-8.61 5.92,0 8.717,5.273 8.502,10.333 h -12.592 z m 4.09,-6.889 c -2.045,0 -3.875,1.399 -3.875,3.551 h 7.535 c 0,-2.045 -1.615,-3.551 -3.66,-3.551 z m -52.52,14.314 h -12.055 v -23.14 h 10.439 c 3.553,0 7.211,1.615 7.211,5.919 0,3.552 -2.797,4.305 -3.443,4.843 2.045,0.645 4.305,2.583 4.305,6.35 0,4.091 -3.982,6.028 -6.457,6.028 z m -2.584,-19.48 h -5.166 v 5.704 h 4.951 c 1.076,0 3.66,-0.43 3.66,-3.121 0.001,-1.83 -1.829,-2.583 -3.445,-2.583 z m 0,9.148 h -5.166 v 6.779 h 5.49 c 0.752,0 3.658,-0.645 3.658,-3.121 10e-4,-1.398 -0.321,-3.658 -3.982,-3.658 z m 21.633,10.332 c 0,0.107 -0.215,-0.646 -0.322,-1.4 -0.754,0.646 -2.477,1.938 -5.166,1.938 -3.014,0 -6.457,-1.83 -6.457,-5.381 0,-2.152 1.398,-4.844 6.35,-5.596 2.582,-0.432 4.842,-0.217 4.949,-1.723 0.107,-0.431 -0.43,-2.26 -3.229,-2.26 -1.291,0 -2.797,0.323 -3.121,2.475 h -3.98 c 0,-3.013 2.043,-5.596 7.533,-5.596 3.443,0 6.994,1.507 7.104,5.381 v 8.824 c 0,0.754 0.322,2.691 0.645,3.338 z m -7.425,-4.951 c 0,1.83 2.475,2.152 2.906,1.938 0,0 2.367,0 3.336,-1.184 0.645,-0.861 0.861,-1.83 0.645,-4.307 -4.198,1.079 -6.887,1.401 -6.887,3.553 z"
       id="path8"
       inkscape:connector-curvature="0" />
  </g>
</svg>
